# Blender 5.1.2
# www.blender.org
mtllib rocket.mtl
o Цилиндр
v 0.000000 2.658600 -7.342125
v 6.358467 2.658600 -3.671063
v 6.358467 2.658600 3.671063
v 0.000000 2.658600 7.342125
v -6.358467 2.658600 3.671063
v -6.358467 2.658600 -3.671063
v 0.000000 26.530527 -4.483294
v 3.882646 26.530527 -2.241647
v 3.882646 26.530527 2.241647
v 0.000000 26.530527 4.483294
v -3.882646 26.530527 2.241647
v -3.882646 26.530527 -2.241647
v 6.358467 22.152678 -3.671063
v 6.358467 22.152678 3.671063
v 0.000000 22.152678 7.342125
v -6.358467 22.152678 3.671063
v -6.358467 22.152678 -3.671063
v 0.000000 22.152678 -7.342125
v 0.000000 53.019508 -4.483294
v 3.882646 53.019508 -2.241647
v 3.882646 53.019508 2.241647
v 0.000000 53.019508 4.483294
v -3.882646 53.019508 2.241647
v -3.882646 53.019508 -2.241647
v 0.000000 57.085724 -5.958475
v 5.160190 57.085724 -2.979237
v 5.160190 57.085724 2.979237
v 0.000000 57.085724 5.958475
v -5.160190 57.085724 2.979237
v -5.160190 57.085724 -2.979237
v -0.000003 72.754211 -5.958475
v 5.160188 72.754211 -2.979237
v 5.160188 72.754211 2.979237
v -0.000003 72.754211 5.958475
v -5.160193 72.754211 2.979237
v -5.160193 72.754211 -2.979237
v -0.000003 79.156082 -2.507969
v 2.171963 79.156082 -1.253984
v 2.171963 79.156082 1.253985
v -0.000003 79.156082 2.507969
v -2.171968 79.156082 1.253985
v -2.171968 79.156082 -1.253984
v -0.000004 80.131973 -0.580136
v 0.502409 80.131973 -0.290068
v 0.502409 80.131973 0.290068
v -0.000004 80.131973 0.580136
v -0.502417 80.131973 0.290068
v -0.502417 80.131973 -0.290068
v 0.000000 53.019508 -4.483294
v 3.882646 53.019508 -2.241647
v 3.882646 53.019508 2.241647
v 0.000000 53.019508 4.483294
v -3.882646 53.019508 2.241647
v -3.882646 53.019508 -2.241647
v 0.000000 26.530527 -4.483294
v 3.882646 26.530527 -2.241647
v 3.882646 26.530527 2.241647
v 0.000000 26.530527 4.483294
v -3.882646 26.530527 2.241647
v -3.882646 26.530527 -2.241647
v -3.882646 50.219246 -1.577412
v -3.882646 50.219246 1.577412
v -3.882646 47.641327 1.577412
v -3.882646 47.641327 -1.577412
v -2.653977 50.219246 -1.577412
v -2.653977 50.219246 1.577412
v -2.653977 47.641327 1.577412
v -2.653977 47.641327 -1.577412
vn -0.0000 -1.0000 -0.0000
vn -0.4352 0.4923 -0.7538
vn -0.8704 0.4923 -0.0000
vn -0.4352 0.4923 0.7538
vn 0.4352 0.4923 0.7538
vn 0.8704 0.4923 -0.0000
vn 0.4352 0.4923 -0.7538
vn 0.5000 -0.0000 -0.8660
vn 1.0000 -0.0000 -0.0000
vn 0.5000 -0.0000 0.8660
vn -0.5000 -0.0000 0.8660
vn -1.0000 -0.0000 -0.0000
vn -0.5000 -0.0000 -0.8660
vn 0.9540 -0.2997 -0.0000
vn -0.9540 -0.2997 -0.0000
vn 0.4770 -0.2997 -0.8262
vn 0.4770 -0.2997 0.8262
vn -0.4770 -0.2997 -0.8262
vn -0.4770 -0.2997 0.8262
vn -0.9061 0.4230 -0.0000
vn -0.2523 0.8633 -0.4370
vn 0.4531 0.4230 0.7847
vn 0.4531 0.4230 -0.7847
vn -0.4531 0.4230 -0.7847
vn -0.4531 0.4230 0.7847
vn 0.9061 0.4230 -0.0000
vn -0.0000 1.0000 -0.0000
vn -0.2523 0.8633 0.4370
vn 0.5046 0.8633 -0.0000
vn -0.5046 0.8633 -0.0000
vn 0.2523 0.8633 0.4370
vn 0.2523 0.8633 -0.4370
vn -0.0000 -0.0000 1.0000
vn -0.0000 -0.0000 -1.0000
vt 0.750000 0.490000
vt 0.957846 0.370000
vt 0.957846 0.130000
vt 0.750000 0.010000
vt 0.542154 0.130000
vt 0.542154 0.370000
vt 0.166667 0.683190
vt 0.166667 0.750000
vt -0.000000 0.750000
vt -0.000000 0.683190
vt 0.333333 0.683190
vt 0.333333 0.750000
vt 0.500000 0.683190
vt 0.500000 0.750000
vt 0.666667 0.683190
vt 0.666667 0.750000
vt 0.833333 0.683190
vt 0.833333 0.750000
vt 1.000000 0.683190
vt 1.000000 0.750000
vt 1.000000 0.500000
vt 0.833333 0.500000
vt 0.666667 0.500000
vt 0.500000 0.500000
vt 0.333333 0.500000
vt 0.166667 0.500000
vt -0.000000 0.500000
vt 0.666667 1.000000
vt 0.833333 1.000000
vt 1.000000 1.000000
vt 0.166667 1.000000
vt 0.333333 1.000000
vt 0.500000 1.000000
vt -0.000000 1.000000
vt 0.457846 0.370000
vt 0.250000 0.490000
vt 0.042154 0.370000
vt 0.042154 0.130000
vt 0.250000 0.010000
vt 0.457846 0.130000
vt 0.179774 0.761270
vt 0.320226 0.761270
vt 0.179774 0.988730
vt 0.320226 0.988730
s 0
usemtl Материал
f 1/1/1 2/2/1 3/3/1 4/4/1 5/5/1 6/6/1
f 17/7/2 12/8/2 7/9/2 18/10/2
f 16/11/3 11/12/3 12/8/3 17/7/3
f 15/13/4 10/14/4 11/12/4 16/11/4
f 14/15/5 9/16/5 10/14/5 15/13/5
f 13/17/6 8/18/6 9/16/6 14/15/6
f 18/19/7 7/20/7 8/18/7 13/17/7
f 1/21/8 18/19/8 13/17/8 2/22/8
f 2/22/9 13/17/9 14/15/9 3/23/9
f 3/23/10 14/15/10 15/13/10 4/24/10
f 4/24/11 15/13/11 16/11/11 5/25/11
f 5/25/12 16/11/12 17/7/12 6/26/12
f 6/26/13 17/7/13 18/10/13 1/27/13
f 21/28/14 20/29/14 26/29/14 27/28/14
f 26/29/8 25/30/8 31/30/8 32/29/8
f 24/31/15 23/32/15 29/32/15 30/31/15
f 20/29/16 19/30/16 25/30/16 26/29/16
f 22/33/17 21/28/17 27/28/17 28/33/17
f 19/34/18 24/31/18 30/31/18 25/34/18
f 23/32/19 22/33/19 28/33/19 29/32/19
f 36/31/20 35/32/20 41/32/20 42/31/20
f 25/34/13 30/31/13 36/31/13 31/34/13
f 29/32/11 28/33/11 34/33/11 35/32/11
f 27/28/9 26/29/9 32/29/9 33/28/9
f 30/31/12 29/32/12 35/32/12 36/31/12
f 28/33/10 27/28/10 33/28/10 34/33/10
f 37/34/21 42/31/21 48/31/21 43/34/21
f 34/33/22 33/28/22 39/28/22 40/33/22
f 32/29/23 31/30/23 37/30/23 38/29/23
f 31/34/24 36/31/24 42/31/24 37/34/24
f 35/32/25 34/33/25 40/33/25 41/32/25
f 33/28/26 32/29/26 38/29/26 39/28/26
f 44/35/27 43/36/27 48/37/27 47/38/27 46/39/27 45/40/27
f 41/32/28 40/33/28 46/33/28 47/32/28
f 39/28/29 38/29/29 44/29/29 45/28/29
f 42/31/30 41/32/30 47/32/30 48/31/30
f 40/33/31 39/28/31 45/28/31 46/33/31
f 38/29/32 37/30/32 43/30/32 44/29/32
f 55/20/8 49/30/8 50/29/8 56/18/8
f 56/18/9 50/29/9 51/28/9 57/16/9
f 57/16/10 51/28/10 52/33/10 58/14/10
f 58/14/11 52/33/11 53/32/11 59/12/11
f 64/41/27 63/42/27 67/42/27 68/41/27
f 60/8/13 54/31/13 49/34/13 55/9/13
f 61/43/12 62/44/12 53/32/12 54/31/12
f 62/44/12 63/42/12 59/12/12 53/32/12
f 64/41/12 61/43/12 54/31/12 60/8/12
f 63/42/12 64/41/12 60/8/12 59/12/12
f 67/42/12 66/44/12 65/43/12 68/41/12
f 61/43/33 64/41/33 68/41/33 65/43/33
f 62/44/1 61/43/1 65/43/1 66/44/1
f 63/42/34 62/44/34 66/44/34 67/42/34
